<svg xmlns="http://www.w3.org/2000/svg" xmlns:xlink="http://www.w3.org/1999/xlink" width="260" height="138" viewBox="0 0 260 138">
  <defs>
    <rect id="ib-login-support-a" width="260" height="138" x="0" y="0" rx="4"/>
  </defs>
  <g fill="none" fill-rule="evenodd">
    <mask id="ib-login-support-b" fill="#fff">
      <use xlink:href="#ib-login-support-a"/>
    </mask>
    <use fill="#F7F7F7" xlink:href="#ib-login-support-a"/>
    <g mask="url(#ib-login-support-b)">
      <g transform="translate(-1 -1)">
        <rect width="260" height="138" x=".8" fill="#F7F7F7" fill-rule="nonzero"/>
        <line x1="221.928" x2="50.808" y1="114.816" y2="114.816" stroke="#004165" stroke-linecap="round" stroke-linejoin="round" stroke-width="2"/>
        <path fill="#F2FAFD" fill-rule="nonzero" d="M186.048,107.64 L76.2,107.64 L71.232,107.64 L71.232,111.228 C71.232,113.20968 72.8384304,114.816 74.82,114.816 L76.2,114.816 L186.048,114.816 L187.428,114.816 C189.40968,114.816 191.016,113.20968 191.016,111.228 L191.016,107.64 L186.048,107.64 Z"/>
        <path stroke="#004165" stroke-width="2" d="M76.2,107.64 L191.016,107.64 L191.016,111.228 C191.016,113.20968 189.40968,114.816 187.428,114.816 L76.2,114.816 M186.048,107.64 L71.232,107.64 L71.232,111.228 C71.232,113.20968 72.8384304,114.816 74.82,114.816 L186.048,114.816"/>
        <path stroke="#004165" stroke-width="2" d="M117.048,107.64 L144.648,107.64 L144.648,109.02 C144.648,110.39172 143.53572,111.504 142.164,111.504 L119.532,111.504 C118.16028,111.504 117.048,110.39172 117.048,109.02 L117.048,107.64 Z"/>
        <line x1="82.272" x2="82.272" y1="110.4" y2="112.056" stroke="#004165" stroke-linecap="round" stroke-linejoin="round" stroke-width="2"/>
        <line x1="85.032" x2="85.032" y1="110.4" y2="112.056" stroke="#004165" stroke-linecap="round" stroke-linejoin="round" stroke-width="2"/>
        <line x1="87.792" x2="87.792" y1="110.4" y2="112.056" stroke="#004165" stroke-linecap="round" stroke-linejoin="round" stroke-width="2"/>
        <line x1="171.144" x2="179.424" y1="110.952" y2="110.952" stroke="#004165" stroke-linecap="round" stroke-linejoin="round" stroke-width="2"/>
        <path fill="#BFDEEE" fill-rule="nonzero" stroke="#004165" stroke-width="2" d="M78.408,51.336 C78.408,43.4096112 84.833832,36.984 92.76,36.984 L168.936,36.984 C176.862168,36.984 183.288,43.4096112 183.288,51.336 L183.288,107.64 L78.408,107.64 L78.408,51.336 Z"/>
        <path fill="#F7F7F7" fill-rule="nonzero" stroke="#004165" stroke-width="2" d="M83.376,51.336 C83.376,45.8485128 87.824568,41.4 93.312,41.4 L167.832,41.4 C173.624136,41.4 178.32,46.0956432 178.32,51.888 L178.32,107.64 L83.376,107.64 L83.376,51.336 Z"/>
        <line x1="204.264" x2="204.264" y1="94.392" y2="85.008" stroke="#FFC937" stroke-linecap="round" stroke-width="2"/>
        <path stroke="#FFC937" stroke-linecap="round" stroke-width="2" d="M204.423528 85.008C202.429152 83.85156 198.50388 80.151504 198.755592 74.601144 199.007304 69.050784 200.120136 67.453296 200.645088 67.347864 201.274368 67.222008 205.474536 69.984216 206.313024 75.862464 206.942304 80.277912 205.578312 84.377064 204.423528 85.008zM204.423528 85.008C204.67524 81.980832 202.849224 75.967896 201.9042 73.339824M211.579104 80.480496C206.674032 83.096424 204.804408 87.721632 204.66696 90.026784 205.750536 90.777504 210.12348 90.599208 213.787656 88.052832 218.666784 84.662448 219.862968 79.72536 219.467184 79.218072 219.137088 78.795792 216.311952 77.9562 211.579104 80.480496zM204.816 89.976C206.368224 87.829272 210.5292 83.278584 214.752 82.248"/>
        <path fill="#F7F7F7" fill-rule="nonzero" stroke="#004165" stroke-linecap="round" stroke-width="2" d="M194.594616,102.257448 C194.549904,101.926248 194.807136,101.632032 195.141648,101.632032 L216.045336,101.632032 C216.387024,101.632032 216.646464,101.938944 216.59016,102.275664 L214.557144,114.355632 C214.51188,114.621144 214.282248,114.816 214.01232,114.816 L196.76784,114.816 C196.491288,114.816 196.257792,114.61176 196.220808,114.337416 L194.594616,102.257448 Z"/>
        <rect width="24.782" height="7.081" x="193.224" y="94.558" fill="#BFDEEE" fill-rule="nonzero" stroke="#004165" stroke-linecap="round" stroke-width="2" rx="1"/>
        <path stroke="#00C6D7" stroke-linecap="round" stroke-linejoin="round" stroke-width="2" d="M86.688,21.528 C86.688,22.7472576 85.69992,23.736 84.48,23.736 C83.260632,23.736 82.272,22.7472576 82.272,21.528 C82.272,20.3083008 83.260632,19.32 84.48,19.32 C85.69992,19.32 86.688,20.3083008 86.688,21.528 Z"/>
        <line x1="216.96" x2="216.96" y1="56.856" y2="63.48" stroke="#004165" stroke-linecap="round" stroke-linejoin="round" stroke-width="2"/>
        <line x1="220.272" x2="213.648" y1="60.168" y2="60.168" stroke="#004165" stroke-linecap="round" stroke-linejoin="round" stroke-width="2"/>
        <line x1="51.36" x2="51.36" y1="42.504" y2="38.088" stroke="#004165" stroke-linecap="round" stroke-linejoin="round" stroke-width="2"/>
        <line x1="53.568" x2="49.152" y1="40.296" y2="40.296" stroke="#004165" stroke-linecap="round" stroke-linejoin="round" stroke-width="2"/>
        <path stroke="#00C6D7" stroke-linecap="round" stroke-linejoin="round" stroke-width="2" d="M207.024,34.776 C207.024,35.9952576 206.03592,36.984 204.816,36.984 C203.596632,36.984 202.608,35.9952576 202.608,34.776 C202.608,33.5563008 203.596632,32.568 204.816,32.568 C206.03592,32.568 207.024,33.5563008 207.024,34.776 Z"/>
        <line x1="48.048" x2="40.872" y1="114.816" y2="114.816" stroke="#004165" stroke-linecap="round" stroke-linejoin="round" stroke-width="2"/>
        <polygon fill="#BFDEEE" fill-rule="nonzero" points="156.457 62.94 145.925 51.336 145.782 62.94"/>
        <path fill="#FFF" fill-rule="nonzero" stroke="#004165" stroke-width="2" d="M105.456,51.9065472 L105.456,107.088 C105.456,107.392704 105.703296,107.64 106.008,107.64 L131.078184,107.64 L156.147816,107.64 C156.453072,107.64 156.699816,107.392704 156.699816,107.088 L156.699816,63.484416 C156.699816,63.349728 156.650688,63.219456 156.561816,63.118992 L146.32884,51.5409576 C146.22396,51.422388 146.073264,51.3545472 145.91484,51.3545472 L106.008,51.3545472 C105.703296,51.3545472 105.456,51.6016776 105.456,51.9065472 Z"/>
        <path stroke="#004165" stroke-width="2" d="M145.781808,51.336 L145.781808,62.319696 C145.781808,62.6244 146.028552,62.871696 146.333808,62.871696 L156.407808,62.871696"/>
        <path fill="#F2FAFD" stroke="#004165" stroke-linejoin="round" stroke-width="2" d="M101.480496,81.630864 L97.443168,81.630864 C96.617376,81.630864 95.948352,80.958528 95.948352,80.12832 L95.948352,68.858136 C95.948352,68.02848 96.617376,67.355592 97.443168,67.355592 L113.1426,67.355592 C113.968392,67.355592 114.637416,68.02848 114.637416,68.858136 L114.637416,80.12832 C114.637416,80.958528 113.968392,81.630864 113.1426,81.630864 L107.497848,81.630864 L101.480496,86.045208 L101.480496,81.630864 Z"/>
        <path fill="#0072AC" d="M105.131976,76.086024 L105.199872,76.086024 C105.459864,76.086024 105.64092,75.877368 105.686184,75.621792 L105.731448,75.086904 C106.986144,74.866104 108.015072,74.204256 108.015072,72.7398 L108.015072,72.716616 C108.015072,71.264304 106.94088,70.35792 105.358296,70.35792 C104.318328,70.35792 103.560984,70.74156 102.961512,71.322816 C102.80364,71.46192 102.735744,71.647944 102.735744,71.822376 C102.735744,72.170688 103.018368,72.46104 103.368888,72.46104 C103.52676,72.46104 103.674144,72.391488 103.786752,72.298752 C104.239392,71.880336 104.725152,71.659536 105.324624,71.659536 C106.138272,71.659536 106.624584,72.112728 106.624584,72.763536 L106.624584,72.78672 C106.624584,73.518672 106.036704,73.936536 104.974104,74.041416 C104.668848,74.076192 104.487792,74.308584 104.533056,74.62212 L104.646216,75.621792 C104.679888,75.88896 104.871984,76.086024 105.131976,76.086024 Z M105.131976,76.934448 C104.668848,76.934448 104.329368,77.283312 104.329368,77.736504 L104.329368,77.852424 C104.329368,78.305616 104.668848,78.653928 105.131976,78.653928 C105.595656,78.653928 105.934584,78.305616 105.934584,77.852424 L105.934584,77.736504 C105.934584,77.283312 105.595656,76.934448 105.131976,76.934448 Z"/>
        <path fill="#F2FAFD" stroke="#004165" stroke-linejoin="round" stroke-width="2" d="M160.215504,90.022368 L164.252832,90.022368 C165.078624,90.022368 165.747648,89.34948 165.747648,88.519824 L165.747648,77.24964 C165.747648,76.419432 165.078624,75.747096 164.252832,75.747096 L148.5534,75.747096 C147.727608,75.747096 147.058584,76.419432 147.058584,77.24964 L147.058584,88.519824 C147.058584,89.34948 147.727608,90.022368 148.5534,90.022368 L154.198152,90.022368 L160.215504,94.43616 L160.215504,90.022368 Z"/>
        <circle cx="152.928" cy="82.8" r="1.104" fill="#0072AC" fill-rule="nonzero"/>
        <circle cx="156.792" cy="82.8" r="1.104" fill="#0072AC" fill-rule="nonzero"/>
        <circle cx="160.656" cy="82.8" r="1.104" fill="#0072AC" fill-rule="nonzero"/>
        <path fill="#FFF" d="M60.51216,110.934888 C59.4867648,109.931352 52.9523544,103.525944 51.9178512,102.532344 C50.4550512,101.127504 49.0084248,99.725424 47.8438704,98.04348 C46.3321632,95.86032 45.3190224,93.4674 45.2890488,90.805104 C45.2401416,86.469144 46.8619176,82.266768 51.576936,80.432472 C55.465776,78.91944 59.2702704,79.157904 62.7750288,81.661224 C63.6721392,82.302096 64.549488,82.969464 65.3360328,83.551272 C66.9578088,82.52124 68.4478224,81.445392 70.0513272,80.585928 C72.6717816,79.181088 75.4698696,79.250088 78.230256,80.086368 C82.131792,81.268752 84.509256,83.922216 85.320696,87.978864 C86.0532,91.641936 85.235136,94.937376 83.142504,97.989384 C81.64824,100.169232 79.71624,101.919624 77.868696,103.755576 C77.219544,104.400864 76.563768,105.038976 75.9052872,105.674328"/>
        <path fill="#FFF" d="M75.9052872,105.674328 C74.906112,106.645848 68.0813496,113.236728 67.0775376,114.20328 C66.1769496,115.06992 64.7488704,115.010856 63.752952,114.066384 C62.6631936,113.03304 61.5861864,111.985344 60.51216,110.934888"/>
        <path stroke="#FDC82F" stroke-width="2" d="M60.51216,110.934888 C59.4867648,109.931352 52.9523544,103.525944 51.9178512,102.532344 C50.4550512,101.127504 49.0084248,99.725424 47.8438704,98.04348 C46.3321632,95.86032 45.3190224,93.4674 45.2890488,90.805104 C45.2401416,86.469144 46.8619176,82.266768 51.576936,80.432472 C55.465776,78.91944 59.2702704,79.157904 62.7750288,81.661224 C63.6721392,82.302096 64.549488,82.969464 65.3360328,83.551272 C66.9578088,82.52124 68.4478224,81.445392 70.0513272,80.585928 C72.6717816,79.181088 75.4698696,79.250088 78.230256,80.086368 C82.131792,81.268752 84.509256,83.922216 85.320696,87.978864 C86.0532,91.641936 85.235136,94.937376 83.142504,97.989384 C81.64824,100.169232 79.71624,101.919624 77.868696,103.755576 C77.219544,104.400864 76.563768,105.038976 75.9052872,105.674328 C74.906112,106.645848 68.0813496,113.236728 67.0775376,114.20328 C66.1769496,115.06992 64.7488704,115.010856 63.752952,114.066384 C62.6631936,113.03304 61.5861864,111.985344 60.51216,110.934888 Z"/>
      </g>
    </g>
  </g>
</svg>
