<?xml version="1.0" encoding="UTF-8"?>
<svg width="76px" height="69px" viewBox="0 0 76 69" version="1.1" xmlns="http://www.w3.org/2000/svg" xmlns:xlink="http://www.w3.org/1999/xlink">
    <!-- Generator: Sketch 52.3 (67297) - http://www.bohemiancoding.com/sketch -->
    <title>illustration/Stop</title>
    <desc>Created with Sketch.</desc>
    <defs>
        <polygon id="path-1" points="0 0 76.0077907 0 76.0077907 68.9995 0 68.9995"></polygon>
    </defs>
    <g id="Error---challenges" stroke="none" stroke-width="1" fill="none" fill-rule="evenodd">
        <g id="desktop-fraud-lock---pin-password" transform="translate(-502.000000, -205.000000)">
            <g id="illustration/Stop" transform="translate(502.000000, 205.000000)">
                <g id="Group-3" transform="translate(0.000000, 0.000500)">
                    <mask id="mask-2" fill="white">
                        <use xlink:href="#path-1"></use>
                    </mask>
                    <g id="Clip-2"></g>
                    <path d="M38.0039,1.9995 C36.0549,1.9995 34.3079,3.0285 33.3309,4.7525 L2.7409,58.7135 C1.7459,60.4705 1.7579,62.5605 2.7749,64.3055 C3.7569,65.9935 5.4919,66.9995 7.4149,66.9995 L68.5939,66.9995 C70.5159,66.9995 72.2499,65.9935 73.2329,64.3055 C74.2499,62.5605 74.2629,60.4705 73.2669,58.7135 L42.6769,4.7525 C41.6999,3.0295 39.9529,1.9995 38.0039,1.9995 Z M68.5939,68.9995 L7.4149,68.9995 C4.7729,68.9995 2.3919,67.6215 1.0459,65.3125 C-0.3321,62.9455 -0.3501,60.1105 1.0009,57.7275 L31.5899,3.7665 C32.9269,1.4085 35.3249,-0.0005 38.0039,-0.0005 L38.0049,-0.0005 C40.6839,-0.0005 43.0799,1.4085 44.4169,3.7665 L75.0069,57.7275 C76.3579,60.1105 76.3399,62.9455 74.9609,65.3125 C73.6159,67.6215 71.2349,68.9995 68.5939,68.9995 Z" id="Fill-1" fill="#7A99AC" mask="url(#mask-2)"></path>
                </g>
                <path d="M38.0039,49.0005 C36.3469,49.0005 35.0039,50.3425 35.0039,51.9975 C35.0039,53.6525 36.3469,55.0005 38.0039,55.0005 C39.6609,55.0005 41.0039,53.6525 41.0039,51.9975 C41.0039,50.3425 39.6609,49.0005 38.0039,49.0005 M38.0039,43.0005 C38.5559,43.0005 39.0039,42.5535 39.0039,42.0005 L39.0039,23.0005 C39.0039,22.4485 38.5559,22.0005 38.0039,22.0005 C37.4519,22.0005 37.0039,22.4485 37.0039,23.0005 L37.0039,42.0005 C37.0039,42.5535 37.4519,43.0005 38.0039,43.0005" id="Fill-4" fill="#007DBA"></path>
            </g>
        </g>
    </g>
</svg>